<svg xmlns="http://www.w3.org/2000/svg" width="1200" height="1200" viewBox="0 0 1200 1200">
  <defs>
    <linearGradient id="bg" x1="0" y1="0" x2="1" y2="1">
      <stop offset="0%" stop-color="#132d44"/>
      <stop offset="100%" stop-color="#0a1620"/>
    </linearGradient>
    <linearGradient id="card" x1="0" y1="0" x2="1" y2="1">
      <stop offset="0%" stop-color="#1f6fb3"/>
      <stop offset="100%" stop-color="#15426a"/>
    </linearGradient>
  </defs>
  <rect width="1200" height="1200" rx="80" fill="url(#bg)"/>
  <rect x="90" y="90" width="1020" height="1020" rx="48" fill="url(#card)" opacity="0.18"/>
  <g fill="none" stroke="#7fd1ff" stroke-linecap="round" stroke-linejoin="round" stroke-width="34" opacity="0.92">
    <path d="M242 662h58l92-164c18-31 50-50 86-50h236c34 0 65 17 84 46l58 88h82c40 0 72 32 72 72v50H190v-26c0-9 7-16 16-16h36z"/>
    <circle cx="364" cy="738" r="70"/>
    <circle cx="844" cy="738" r="70"/>
    <path d="M458 662h300"/>
    <path d="M500 448l-76 134h370l-88-134z"/>
  </g>
  <text x="600" y="286" text-anchor="middle" fill="#dff4ff" font-family="Arial, sans-serif" font-size="92" font-weight="700">Vehiculo RP</text>
  <text x="600" y="988" text-anchor="middle" fill="#8ed3ff" font-family="Arial, sans-serif" font-size="52">Placeholder automatico para tienda</text>
</svg>
